# xmcd
#
# Track frame offsets:
# 150
# 24490
# 44530
# 60294
# 92556
# 107531
# 130304
# 159240
# 178683
# 197746
# 230262
# 249515
#
# Disc length: 3612 seconds
#
#
# Revision: 5
# Processed by: cddbd v1.5.1PL0 Copyright (c) Steve Scherf et al.
# Submitted via: FreeRIP 2.942 
#
DISCID=900e1a0c
DTITLE=Popa Chubby - Peace, Love and Respect
DYEAR=2004
DGENRE=Blues
TTITLE0=Un-American Blues
TTITLE1=The Man On The News
TTITLE2=Top Ten Reasons Why I Can't Sleep At Night
TTITLE3=I'm Not Afraid
TTITLE4=Keep On The Sunny Side Of Life
TTITLE5=Young Men
TTITLE6=Midnight Ride - Peace
TTITLE7=Like The Buddha Do
TTITLE8=The Devil Gonna Drag You Down
TTITLE9=Sweet Release
TTITLE10=Life Is A Beat Down
TTITLE11=See You In Sete
EXTD=YEAR: 2004
EXTT0=
EXTT1=
EXTT2=
EXTT3=
EXTT4=
EXTT5=
EXTT6=
EXTT7=
EXTT8=
EXTT9=
EXTT10=
EXTT11=
PLAYORDER=
